<svg xmlns="http://www.w3.org/2000/svg">

<symbol id="video-icon" viewBox="0 0 35 32">
<path d="M10.182 4.752c-3.394 1.455-4.267 3.297-4.461 9.988-0.291 8.242 1.358 10.958 6.885 11.927 5.236 0.873 11.442-0.291 13.673-2.521 1.455-1.455 1.842-3.2 1.842-8.436-0.097-9.212-1.648-11.152-9.891-11.539-3.297-0.097-6.982 0.097-8.049 0.582zM12.606 7.758c0 1.455-0.679 1.939-2.424 1.939-2.618 0-3.103-0.873-1.261-2.715 1.745-1.745 3.685-1.358 3.685 0.776zM19.394 7.758c0 1.551-0.679 1.939-2.909 1.939s-2.909-0.388-2.909-1.939c0-1.551 0.679-1.939 2.909-1.939s2.909 0.388 2.909 1.939zM24.339 6.788c2.618 1.455 2.327 2.909-0.582 2.909-1.745 0-2.424-0.485-2.424-1.939 0-2.23 0.388-2.327 3.006-0.97zM26.57 16.679c-0.194 7.661-1.067 8.533-9.503 8.533-3.782 0-7.564-0.388-8.242-0.873-0.97-0.582-1.551-3.2-1.842-7.273l-0.388-6.303 20.073 0.388-0.097 5.527z"></path>
<path d="M13.77 17.648c0.388 3.879 3.394 4.752 6.012 1.842 1.648-1.745 1.552-1.939-0.582-3.394-1.164-0.873-3.006-1.552-3.976-1.552-1.455 0-1.745 0.582-1.455 3.103zM18.327 16.776c0.776 0.97 0.679 1.648-0.097 2.424-1.842 1.842-2.715 1.358-2.715-1.261s1.164-3.103 2.812-1.164z"></path>
</symbol>

<symbol id="icon-search" viewBox="0 0 32 32">
<path fill="none"  stroke-linejoin="round" stroke-linecap="round" stroke-miterlimit="4" stroke-width="2.6667" d="M14.667 25.333c5.891 0 10.667-4.776 10.667-10.667s-4.776-10.667-10.667-10.667c-5.891 0-10.667 4.776-10.667 10.667s4.776 10.667 10.667 10.667z"></path>
<path fill="none"  stroke-linejoin="round" stroke-linecap="round" stroke-miterlimit="4" stroke-width="2.6667" d="M28 28l-5.8-5.8"></path>
</symbol>

</svg>